HIERARCHY
ROOT Hips
{
  OFFSET 0 0 0
  CHANNELS 6 Xposition Yposition Zposition Zrotation Xrotation Yrotation
  JOINT Spine
  {
    OFFSET 0.00000000 0.00000000 0.00000000
    CHANNELS 3 Zrotation Xrotation Yrotation
    JOINT Spine1
    {
      OFFSET 0.19000000 0.00000000 0.00000000
      CHANNELS 3 Zrotation Xrotation Yrotation
      JOINT Neck
      {
        OFFSET 0.22500000 0.00600000 0.00000000
        CHANNELS 3 Zrotation Xrotation Yrotation
        JOINT Head
        {
          OFFSET 0.14000000 0.00030878 0.00000000
          CHANNELS 3 Zrotation Xrotation Yrotation
          End Site
          {
            OFFSET 0.17000000 0.00000000 0.00000000
          }
        }
      }
      JOINT LeftShoulder
      {
        OFFSET 0.19800000 0.03700000 0.04300000
        CHANNELS 3 Zrotation Xrotation Yrotation
        JOINT LeftArm
        {
          OFFSET 0.08000000 0.00000000 0.00000000
          CHANNELS 3 Zrotation Xrotation Yrotation
          JOINT LeftForeArm
          {
            OFFSET 0.15200000 0.00000000 0.00000000
            CHANNELS 3 Zrotation Xrotation Yrotation
            JOINT LeftHand
            {
              OFFSET 0.17800000 0.00000000 0.00000000
              CHANNELS 3 Zrotation Xrotation Yrotation
              End Site
              {
                OFFSET 0.07200000 0.00000000 0.00000000
              }
            }
          }
        }
      }
      JOINT RightShoulder
      {
        OFFSET 0.19800000 0.03700000 -0.04300000
        CHANNELS 3 Zrotation Xrotation Yrotation
        JOINT RightArm
        {
          OFFSET 0.08000000 0.00000000 0.00151654
          CHANNELS 3 Zrotation Xrotation Yrotation
          JOINT RightForeArm
          {
            OFFSET 0.15200000 0.00000000 0.00000000
            CHANNELS 3 Zrotation Xrotation Yrotation
            JOINT RightHand
            {
              OFFSET 0.17800000 0.00000000 0.00000000
              CHANNELS 3 Zrotation Xrotation Yrotation
              End Site
              {
                OFFSET 0.07200000 0.00000000 0.00000000
              }
            }
          }
        }
      }
    }
  }
  JOINT LeftUpLeg
  {
    OFFSET 0.05984250 -0.07666000 0.04788790
    CHANNELS 3 Zrotation Xrotation Yrotation
    JOINT LeftLeg
    {
      OFFSET 0.16000000 0.00000000 0.00000000
      CHANNELS 3 Zrotation Xrotation Yrotation
      JOINT LeftFoot
      {
        OFFSET 0.18000000 0.00000000 0.00000000
        CHANNELS 3 Zrotation Xrotation Yrotation
        End Site
        {
          OFFSET 0.00000000 -0.10800000 0.00000000
        }
      }
    }
  }
  JOINT RightUpLeg
  {
    OFFSET 0.05984250 -0.07665980 -0.04788790
    CHANNELS 3 Zrotation Xrotation Yrotation
    JOINT RightLeg
    {
      OFFSET 0.16000000 0.00000000 0.00000000
      CHANNELS 3 Zrotation Xrotation Yrotation
      JOINT RightFoot
      {
        OFFSET 0.18000000 0.00000000 0.00000000
        CHANNELS 3 Zrotation Xrotation Yrotation
        End Site
        {
          OFFSET 0.00000000 -0.10800000 0.00000000
        }
      }
    }
  }
  JOINT Tail
  {
    OFFSET 0.06836960 -0.00722574 0.00000000
    CHANNELS 3 Zrotation Xrotation Yrotation
    JOINT Tail1
    {
      OFFSET 0.12000000 0.00000000 0.00000000
      CHANNELS 3 Zrotation Xrotation Yrotation
      End Site
      {
        OFFSET 0.12000000 0.00000000 0.00000000
      }
    }
  }
}
MOTION
Frames:	8
Frame Time:	0.0166667
0.0000000 0.4680100 0.0000000 0.78665 -0.26864 0.00369 -173.283 -1.67488 5.32086 -10.4624 3.40381 -20.6273 -17.362 -0.346642 -16.095 -103.938 72.824 114.311 -107.53 -32.0634 -139.421 142.416 -35.832 -125.258 -46.9535 13.4177 -2.68536 -19.527 3.41889 -14.7834 75.9526 -29.2253 45.0919 37.4213 -52.7758 -47.8789 -55.6695 -18.3856 3.03832 -3.74931 0.058704 6.83129 -121.986 -6.46621 -12.6959 76.0595 7.52761 6.35377 50.9563 -3.00667 -5.60088 -123.444 2.33419 -0.985031 76.6336 1.07221 -3.35135 53.5448 0.197944 -2.17644 -52.9967 6.82505 26.7292 17.3643 -44.2053 28.1267 
0.0003492 0.4680680 -0.0000983 0.63140 -0.19758 0.11856 -173.265 -1.62819 5.03129 -10.313 3.32234 -20.1278 -17.3438 -0.745059 -15.2877 -103.992 72.2122 114.543 -107.553 -32.046 -139.53 141.854 -35.7495 -125.472 -47.3298 13.6054 -2.75337 -19.5374 3.32521 -14.5357 76.0203 -29.1313 45.11 36.3414 -53.3143 -47.7631 -55.56 -18.3286 2.85237 -3.45077 0.0439942 7.10883 -121.939 -6.37389 -12.848 76.1916 7.53815 6.36014 50.901 -3.01544 -5.61648 -123.337 2.62275 -1.07054 76.7459 1.87519 -3.38123 53.1668 0.0704513 -2.28139 -53.2572 9.19939 22.0922 13.6898 -43.618 23.7495 
0.0007192 0.4681440 -0.0002445 0.44403 -0.16793 0.15498 -173.162 -1.67574 4.69304 -10.1828 3.15893 -19.6487 -17.5711 -1.24999 -14.501 -103.935 71.1949 114.766 -107.621 -32.2346 -139.313 142.402 -35.6917 -125.019 -46.8105 13.4702 -2.69891 -19.645 3.43522 -14.8518 75.9581 -29.1695 44.9755 37.925 -52.3606 -47.3384 -55.592 -18.347 3.05018 -4.25216 0.0394283 6.67184 -121.752 -6.3444 -12.8771 76.1135 7.8263 6.34172 50.9901 -3.03574 -5.63533 -123.272 2.64627 -1.11078 76.9023 1.9132 -3.37603 53.0179 0.0613972 -2.27882 -53.182 11.5677 17.4492 9.46403 -41.6234 18.4126 
0.0009751 0.4681960 -0.0004866 0.28230 -0.17603 0.23348 -173.024 -1.70974 4.40954 -10.12 3.04998 -19.2975 -17.765 -2.06933 -13.3754 -103.518 70.2767 114.392 -107.837 -32.4709 -139.442 142.457 -35.6671 -124.811 -46.645 13.5255 -2.72877 -19.5942 3.47474 -15.0276 76.2104 -28.9376 45.3361 37.5469 -52.2896 -47.4458 -55.5763 -18.2145 2.97398 -4.40022 0.0350269 6.58169 -121.635 -6.26891 -12.7976 76.1064 7.96541 6.25323 51.1072 -3.04234 -5.64281 -123.163 2.59688 -1.23601 76.9316 1.92603 -3.31868 53.1648 0.0627711 -2.28706 -52.585 14.1317 12.2988 5.23104 -37.6601 12.8337 
0.0012790 0.4684190 -0.0006491 0.11288 -0.15233 0.21739 -172.889 -1.78422 3.95441 -10.0849 2.86901 -18.7207 -17.9023 -2.83203 -12.4939 -103.477 68.8349 114.313 -107.872 -32.5967 -139.267 142.493 -35.6648 -124.589 -46.5721 13.5441 -2.74373 -19.6003 3.52228 -15.2027 76.1732 -28.9437 45.2128 37.6468 -52.1732 -47.286 -55.5724 -18.2487 2.98532 -4.56579 0.0453615 6.42929 -121.5 -6.16201 -12.6444 76.1376 7.92307 6.10998 51.1427 -3.02426 -5.62367 -122.906 2.70432 -1.40783 76.8655 2.55904 -3.25078 52.8578 -0.0389689 -2.36098 -51.5809 16.5833 6.92314 1.89035 -31.8496 7.78773 
0.0012747 0.4685100 -0.0006004 0.09802 -0.11155 0.33348 -172.827 -1.7936 3.89676 -10.2116 2.85127 -18.591 -17.8618 -4.10596 -11.3358 -103.004 67.0362 113.815 -107.839 -32.5101 -139.361 142.344 -35.7117 -124.725 -46.6887 13.5834 -2.73887 -19.5519 3.52809 -15.2528 76.312 -28.7305 45.2016 37.5966 -52.2032 -47.042 -55.563 -18.1846 2.91365 -4.65775 0.0403447 6.41802 -121.417 -5.83303 -12.3711 76.1451 8.24153 5.80134 50.9519 -2.99876 -5.59307 -123.032 2.62961 -1.39882 76.942 2.03668 -3.26319 53.3585 0.0445879 -2.31007 -49.9651 18.9914 1.03219 -0.2506 -24.1844 3.47763 
0.0013195 0.4685230 -0.0007065 0.04321 -0.03837 0.41952 -172.741 -1.83477 3.8666 -10.2662 2.82406 -18.6031 -17.8953 -5.29952 -9.99614 -102.858 65.3519 113.412 -107.893 -32.5777 -139.373 142.27 -35.7783 -124.799 -46.7449 13.683 -2.71424 -19.5521 3.50567 -15.2249 76.3761 -28.6408 45.2185 37.4582 -52.1587 -47.0983 -55.5254 -18.1638 2.91171 -4.67086 0.0444714 6.34811 -121.589 -5.7489 -12.3147 76.3967 7.56393 5.69513 51.1666 -2.93714 -5.52875 -122.9 2.82979 -1.47928 76.8911 2.36377 -3.29977 53.1474 -0.00332525 -2.34189 -47.4273 21.1574 -5.55125 -0.746048 -15.6659 0.21364 
0.0013409 0.4685220 -0.0009106 0.01587 0.03902 0.46880 -172.694 -1.86742 3.7679 -10.2969 2.80571 -18.5855 -17.8846 -6.70055 -8.49876 -102.522 63.6734 112.927 -107.966 -32.642 -139.452 142.059 -35.8401 -124.85 -46.9069 13.6582 -2.75805 -19.5787 3.59882 -15.5187 76.5443 -28.5435 45.6106 36.7026 -52.1046 -47.9714 -55.3397 -17.7867 3.01743 -4.33095 0.0100576 6.41919 -121.457 -5.52759 -12.1886 76.238 7.9691 5.55401 51.3849 -2.95877 -5.55213 -122.889 2.84205 -1.51259 76.8498 2.00857 -3.33667 53.4339 0.0569122 -2.30045 -44.2084 22.8822 -12.5302 -0.421277 -8.26613 -2.00589 
